<?xml version="1.0" standalone="no"?>
<!DOCTYPE svg PUBLIC "-//W3C//DTD SVG 20010904//EN"
 "http://www.w3.org/TR/2001/REC-SVG-20010904/DTD/svg10.dtd">
<svg version="1.0" xmlns="http://www.w3.org/2000/svg"
 width="33.000000pt" height="33.000000pt" viewBox="0 0 33.000000 33.000000"
 preserveAspectRatio="xMidYMid meet">
<defs>
  <linearGradient id="gradWarm" x1="0%" y1="0%" x2="100%" y2="100%">
    <stop offset="0%" stop-color="#F29B14"/>
    <stop offset="100%" stop-color="#C2070C"/>
  </linearGradient>
</defs>


<g transform="translate(0.000000,33.000000) scale(0.100000,-0.100000)"
fill="url(#gradWarm)" stroke="none">
<path d="M67 303 c-14 -13 -6 -53 12 -63 50 -26 85 3 56 46 -15 23 -53 32 -68
17z m53 -33 c11 -21 4 -25 -24 -14 -9 3 -16 12 -16 20 0 21 28 17 40 -6z"/>
<path d="M196 289 c-9 -14 -13 -32 -9 -46 4 -19 1 -25 -16 -30 -20 -5 -21 -12
-21 -99 0 -77 3 -94 15 -94 11 0 15 11 15 37 0 20 3 33 7 29 4 -4 7 -19 8 -34
0 -25 3 -27 45 -27 l45 0 3 63 c2 38 -1 62 -8 62 -5 0 -10 5 -10 10 0 6 7 10
15 10 8 0 15 9 15 20 0 15 -7 20 -29 20 -38 0 -48 16 -21 30 15 8 20 19 18 38
-4 37 -49 43 -72 11z m54 -13 c0 -8 -7 -17 -16 -20 -28 -11 -35 -7 -24 14 12
23 40 27 40 6z m-20 -100 c0 -2 -8 -10 -17 -17 -16 -13 -17 -12 -4 4 13 16 21
21 21 13z"/>
<path d="M152 239 c2 -6 8 -10 13 -10 5 0 11 4 13 10 2 6 -4 11 -13 11 -9 0
-15 -5 -13 -11z"/>
<path d="M30 190 c0 -18 7 -20 55 -20 48 0 55 2 55 20 0 18 -7 20 -55 20 -48
0 -55 -2 -55 -20z"/>
<path d="M42 88 l3 -63 45 0 45 0 3 63 3 62 -51 0 -51 0 3 -62z"/>
</g>
</svg>
